<svg width="305" height="205" viewBox="0 0 305 205" fill="none" xmlns="http://www.w3.org/2000/svg">
<path opacity="0.1" d="M2.87738 6.90967C4.46651 6.90967 5.75476 5.45427 5.75476 3.65894C5.75476 1.86361 4.46651 0.408203 2.87738 0.408203C1.28825 0.408203 0 1.86361 0 3.65894C0 5.45427 1.28825 6.90967 2.87738 6.90967Z" fill="#3B4C68"/>
<path opacity="0.1" d="M27.8145 6.90967C29.4036 6.90967 30.6919 5.45427 30.6919 3.65894C30.6919 1.86361 29.4036 0.408203 27.8145 0.408203C26.2254 0.408203 24.9371 1.86361 24.9371 3.65894C24.9371 5.45427 26.2254 6.90967 27.8145 6.90967Z" fill="#3B4C68"/>
<path opacity="0.1" d="M52.7515 6.90967C54.3406 6.90967 55.6288 5.45427 55.6288 3.65894C55.6288 1.86361 54.3406 0.408203 52.7515 0.408203C51.1624 0.408203 49.8742 1.86361 49.8742 3.65894C49.8742 5.45427 51.1624 6.90967 52.7515 6.90967Z" fill="#3B4C68"/>
<path opacity="0.1" d="M77.6887 6.90967C79.2779 6.90967 80.5661 5.45427 80.5661 3.65894C80.5661 1.86361 79.2779 0.408203 77.6887 0.408203C76.0996 0.408203 74.8113 1.86361 74.8113 3.65894C74.8113 5.45427 76.0996 6.90967 77.6887 6.90967Z" fill="#3B4C68"/>
<path opacity="0.1" d="M102.626 6.90967C104.215 6.90967 105.503 5.45427 105.503 3.65894C105.503 1.86361 104.215 0.408203 102.626 0.408203C101.037 0.408203 99.7484 1.86361 99.7484 3.65894C99.7484 5.45427 101.037 6.90967 102.626 6.90967Z" fill="#3B4C68"/>
<path opacity="0.1" d="M127.563 6.90967C129.152 6.90967 130.44 5.45427 130.44 3.65894C130.44 1.86361 129.152 0.408203 127.563 0.408203C125.974 0.408203 124.686 1.86361 124.686 3.65894C124.686 5.45427 125.974 6.90967 127.563 6.90967Z" fill="#3B4C68"/>
<path opacity="0.1" d="M152.5 6.90967C154.089 6.90967 155.377 5.45427 155.377 3.65894C155.377 1.86361 154.089 0.408203 152.5 0.408203C150.911 0.408203 149.623 1.86361 149.623 3.65894C149.623 5.45427 150.911 6.90967 152.5 6.90967Z" fill="#3B4C68"/>
<path opacity="0.1" d="M177.437 6.90967C179.026 6.90967 180.314 5.45427 180.314 3.65894C180.314 1.86361 179.026 0.408203 177.437 0.408203C175.848 0.408203 174.56 1.86361 174.56 3.65894C174.56 5.45427 175.848 6.90967 177.437 6.90967Z" fill="#3B4C68"/>
<path opacity="0.1" d="M202.374 6.90967C203.963 6.90967 205.252 5.45427 205.252 3.65894C205.252 1.86361 203.963 0.408203 202.374 0.408203C200.785 0.408203 199.497 1.86361 199.497 3.65894C199.497 5.45427 200.785 6.90967 202.374 6.90967Z" fill="#3B4C68"/>
<path opacity="0.1" d="M227.311 6.90967C228.9 6.90967 230.189 5.45427 230.189 3.65894C230.189 1.86361 228.9 0.408203 227.311 0.408203C225.722 0.408203 224.434 1.86361 224.434 3.65894C224.434 5.45427 225.722 6.90967 227.311 6.90967Z" fill="#3B4C68"/>
<path opacity="0.1" d="M252.248 6.90967C253.838 6.90967 255.126 5.45427 255.126 3.65894C255.126 1.86361 253.838 0.408203 252.248 0.408203C250.659 0.408203 249.371 1.86361 249.371 3.65894C249.371 5.45427 250.659 6.90967 252.248 6.90967Z" fill="#3B4C68"/>
<path opacity="0.1" d="M277.186 6.90967C278.775 6.90967 280.063 5.45427 280.063 3.65894C280.063 1.86361 278.775 0.408203 277.186 0.408203C275.596 0.408203 274.308 1.86361 274.308 3.65894C274.308 5.45427 275.596 6.90967 277.186 6.90967Z" fill="#3B4C68"/>
<path opacity="0.1" d="M302.123 6.90967C303.712 6.90967 305 5.45427 305 3.65894C305 1.86361 303.712 0.408203 302.123 0.408203C300.534 0.408203 299.245 1.86361 299.245 3.65894C299.245 5.45427 300.534 6.90967 302.123 6.90967Z" fill="#3B4C68"/>
<path opacity="0.1" d="M2.87738 35.0881C4.46651 35.0881 5.75476 33.6324 5.75476 31.8367C5.75476 30.0409 4.46651 28.5852 2.87738 28.5852C1.28825 28.5852 0 30.0409 0 31.8367C0 33.6324 1.28825 35.0881 2.87738 35.0881Z" fill="#3B4C68"/>
<path opacity="0.1" d="M27.8145 35.0881C29.4036 35.0881 30.6919 33.6324 30.6919 31.8367C30.6919 30.0409 29.4036 28.5852 27.8145 28.5852C26.2254 28.5852 24.9371 30.0409 24.9371 31.8367C24.9371 33.6324 26.2254 35.0881 27.8145 35.0881Z" fill="#3B4C68"/>
<path opacity="0.1" d="M52.7516 35.0881C54.3407 35.0881 55.6289 33.6324 55.6289 31.8367C55.6289 30.0409 54.3407 28.5852 52.7516 28.5852C51.1625 28.5852 49.8743 30.0409 49.8743 31.8367C49.8743 33.6324 51.1625 35.0881 52.7516 35.0881Z" fill="#3B4C68"/>
<path opacity="0.1" d="M77.6887 35.0881C79.2778 35.0881 80.566 33.6324 80.566 31.8367C80.566 30.0409 79.2778 28.5852 77.6887 28.5852C76.0995 28.5852 74.8113 30.0409 74.8113 31.8367C74.8113 33.6324 76.0995 35.0881 77.6887 35.0881Z" fill="#3B4C68"/>
<path opacity="0.1" d="M102.626 35.0881C104.215 35.0881 105.503 33.6324 105.503 31.8367C105.503 30.0409 104.215 28.5852 102.626 28.5852C101.037 28.5852 99.7484 30.0409 99.7484 31.8367C99.7484 33.6324 101.037 35.0881 102.626 35.0881Z" fill="#3B4C68"/>
<path opacity="0.1" d="M127.563 35.0881C129.152 35.0881 130.44 33.6324 130.44 31.8367C130.44 30.0409 129.152 28.5852 127.563 28.5852C125.974 28.5852 124.686 30.0409 124.686 31.8367C124.686 33.6324 125.974 35.0881 127.563 35.0881Z" fill="#3B4C68"/>
<path opacity="0.1" d="M152.5 35.0881C154.089 35.0881 155.377 33.6324 155.377 31.8367C155.377 30.0409 154.089 28.5852 152.5 28.5852C150.911 28.5852 149.623 30.0409 149.623 31.8367C149.623 33.6324 150.911 35.0881 152.5 35.0881Z" fill="#3B4C68"/>
<path opacity="0.1" d="M177.437 35.0881C179.026 35.0881 180.314 33.6324 180.314 31.8367C180.314 30.0409 179.026 28.5852 177.437 28.5852C175.848 28.5852 174.56 30.0409 174.56 31.8367C174.56 33.6324 175.848 35.0881 177.437 35.0881Z" fill="#3B4C68"/>
<path opacity="0.1" d="M202.374 35.0881C203.963 35.0881 205.252 33.6324 205.252 31.8367C205.252 30.0409 203.963 28.5852 202.374 28.5852C200.785 28.5852 199.497 30.0409 199.497 31.8367C199.497 33.6324 200.785 35.0881 202.374 35.0881Z" fill="#3B4C68"/>
<path opacity="0.1" d="M227.311 35.0881C228.9 35.0881 230.189 33.6324 230.189 31.8367C230.189 30.0409 228.9 28.5852 227.311 28.5852C225.722 28.5852 224.434 30.0409 224.434 31.8367C224.434 33.6324 225.722 35.0881 227.311 35.0881Z" fill="#3B4C68"/>
<path opacity="0.1" d="M252.248 35.0881C253.838 35.0881 255.126 33.6324 255.126 31.8367C255.126 30.0409 253.838 28.5852 252.248 28.5852C250.659 28.5852 249.371 30.0409 249.371 31.8367C249.371 33.6324 250.659 35.0881 252.248 35.0881Z" fill="#3B4C68"/>
<path opacity="0.1" d="M277.186 35.0881C278.775 35.0881 280.063 33.6324 280.063 31.8367C280.063 30.0409 278.775 28.5852 277.186 28.5852C275.596 28.5852 274.308 30.0409 274.308 31.8367C274.308 33.6324 275.596 35.0881 277.186 35.0881Z" fill="#3B4C68"/>
<path opacity="0.1" d="M302.123 35.0881C303.712 35.0881 305 33.6324 305 31.8367C305 30.0409 303.712 28.5852 302.123 28.5852C300.534 28.5852 299.245 30.0409 299.245 31.8367C299.245 33.6324 300.534 35.0881 302.123 35.0881Z" fill="#3B4C68"/>
<path opacity="0.1" d="M2.87738 63.2649C4.46651 63.2649 5.75476 61.8095 5.75476 60.0143C5.75476 58.219 4.46651 56.7637 2.87738 56.7637C1.28825 56.7637 0 58.219 0 60.0143C0 61.8095 1.28825 63.2649 2.87738 63.2649Z" fill="#3B4C68"/>
<path opacity="0.1" d="M27.8145 63.2649C29.4036 63.2649 30.6919 61.8095 30.6919 60.0143C30.6919 58.219 29.4036 56.7637 27.8145 56.7637C26.2254 56.7637 24.9371 58.219 24.9371 60.0143C24.9371 61.8095 26.2254 63.2649 27.8145 63.2649Z" fill="#3B4C68"/>
<path opacity="0.1" d="M52.7516 63.2649C54.3407 63.2649 55.6289 61.8095 55.6289 60.0143C55.6289 58.219 54.3407 56.7637 52.7516 56.7637C51.1625 56.7637 49.8743 58.219 49.8743 60.0143C49.8743 61.8095 51.1625 63.2649 52.7516 63.2649Z" fill="#3B4C68"/>
<path opacity="0.1" d="M77.6887 63.2649C79.2778 63.2649 80.566 61.8095 80.566 60.0143C80.566 58.219 79.2778 56.7637 77.6887 56.7637C76.0995 56.7637 74.8113 58.219 74.8113 60.0143C74.8113 61.8095 76.0995 63.2649 77.6887 63.2649Z" fill="#3B4C68"/>
<path opacity="0.1" d="M102.626 63.2649C104.215 63.2649 105.503 61.8095 105.503 60.0143C105.503 58.219 104.215 56.7637 102.626 56.7637C101.037 56.7637 99.7484 58.219 99.7484 60.0143C99.7484 61.8095 101.037 63.2649 102.626 63.2649Z" fill="#3B4C68"/>
<path opacity="0.1" d="M127.563 63.2649C129.152 63.2649 130.44 61.8095 130.44 60.0143C130.44 58.219 129.152 56.7637 127.563 56.7637C125.974 56.7637 124.686 58.219 124.686 60.0143C124.686 61.8095 125.974 63.2649 127.563 63.2649Z" fill="#3B4C68"/>
<path opacity="0.1" d="M152.5 63.2649C154.089 63.2649 155.377 61.8095 155.377 60.0143C155.377 58.219 154.089 56.7637 152.5 56.7637C150.911 56.7637 149.623 58.219 149.623 60.0143C149.623 61.8095 150.911 63.2649 152.5 63.2649Z" fill="#3B4C68"/>
<path opacity="0.1" d="M177.437 63.2649C179.026 63.2649 180.314 61.8095 180.314 60.0143C180.314 58.219 179.026 56.7637 177.437 56.7637C175.848 56.7637 174.56 58.219 174.56 60.0143C174.56 61.8095 175.848 63.2649 177.437 63.2649Z" fill="#3B4C68"/>
<path opacity="0.1" d="M202.374 63.2649C203.963 63.2649 205.252 61.8095 205.252 60.0143C205.252 58.219 203.963 56.7637 202.374 56.7637C200.785 56.7637 199.497 58.219 199.497 60.0143C199.497 61.8095 200.785 63.2649 202.374 63.2649Z" fill="#3B4C68"/>
<path opacity="0.1" d="M227.311 63.2649C228.9 63.2649 230.189 61.8095 230.189 60.0143C230.189 58.219 228.9 56.7637 227.311 56.7637C225.722 56.7637 224.434 58.219 224.434 60.0143C224.434 61.8095 225.722 63.2649 227.311 63.2649Z" fill="#3B4C68"/>
<path opacity="0.1" d="M252.248 63.2649C253.838 63.2649 255.126 61.8095 255.126 60.0143C255.126 58.219 253.838 56.7637 252.248 56.7637C250.659 56.7637 249.371 58.219 249.371 60.0143C249.371 61.8095 250.659 63.2649 252.248 63.2649Z" fill="#3B4C68"/>
<path opacity="0.1" d="M277.186 63.2649C278.775 63.2649 280.063 61.8095 280.063 60.0143C280.063 58.219 278.775 56.7637 277.186 56.7637C275.596 56.7637 274.308 58.219 274.308 60.0143C274.308 61.8095 275.596 63.2649 277.186 63.2649Z" fill="#3B4C68"/>
<path opacity="0.1" d="M302.123 63.2649C303.712 63.2649 305 61.8095 305 60.0143C305 58.219 303.712 56.7637 302.123 56.7637C300.534 56.7637 299.245 58.219 299.245 60.0143C299.245 61.8095 300.534 63.2649 302.123 63.2649Z" fill="#3B4C68"/>
<path opacity="0.1" d="M2.87738 91.4429C4.46651 91.4429 5.75476 89.9873 5.75476 88.1918C5.75476 86.3962 4.46651 84.9407 2.87738 84.9407C1.28825 84.9407 0 86.3962 0 88.1918C0 89.9873 1.28825 91.4429 2.87738 91.4429Z" fill="#3B4C68"/>
<path opacity="0.1" d="M27.8145 91.4429C29.4036 91.4429 30.6919 89.9873 30.6919 88.1918C30.6919 86.3962 29.4036 84.9407 27.8145 84.9407C26.2254 84.9407 24.9371 86.3962 24.9371 88.1918C24.9371 89.9873 26.2254 91.4429 27.8145 91.4429Z" fill="#3B4C68"/>
<path opacity="0.1" d="M52.7516 91.4429C54.3407 91.4429 55.6289 89.9873 55.6289 88.1918C55.6289 86.3962 54.3407 84.9407 52.7516 84.9407C51.1625 84.9407 49.8743 86.3962 49.8743 88.1918C49.8743 89.9873 51.1625 91.4429 52.7516 91.4429Z" fill="#3B4C68"/>
<path opacity="0.1" d="M77.6887 91.4429C79.2778 91.4429 80.566 89.9873 80.566 88.1918C80.566 86.3962 79.2778 84.9407 77.6887 84.9407C76.0995 84.9407 74.8113 86.3962 74.8113 88.1918C74.8113 89.9873 76.0995 91.4429 77.6887 91.4429Z" fill="#3B4C68"/>
<path opacity="0.1" d="M102.626 91.4429C104.215 91.4429 105.503 89.9873 105.503 88.1918C105.503 86.3962 104.215 84.9407 102.626 84.9407C101.037 84.9407 99.7484 86.3962 99.7484 88.1918C99.7484 89.9873 101.037 91.4429 102.626 91.4429Z" fill="#3B4C68"/>
<path opacity="0.1" d="M127.563 91.4429C129.152 91.4429 130.44 89.9873 130.44 88.1918C130.44 86.3962 129.152 84.9407 127.563 84.9407C125.974 84.9407 124.686 86.3962 124.686 88.1918C124.686 89.9873 125.974 91.4429 127.563 91.4429Z" fill="#3B4C68"/>
<path opacity="0.1" d="M152.5 91.4429C154.089 91.4429 155.377 89.9873 155.377 88.1918C155.377 86.3962 154.089 84.9407 152.5 84.9407C150.911 84.9407 149.623 86.3962 149.623 88.1918C149.623 89.9873 150.911 91.4429 152.5 91.4429Z" fill="#3B4C68"/>
<path opacity="0.1" d="M177.437 91.4429C179.026 91.4429 180.314 89.9873 180.314 88.1918C180.314 86.3962 179.026 84.9407 177.437 84.9407C175.848 84.9407 174.56 86.3962 174.56 88.1918C174.56 89.9873 175.848 91.4429 177.437 91.4429Z" fill="#3B4C68"/>
<path opacity="0.1" d="M202.374 91.4429C203.963 91.4429 205.252 89.9873 205.252 88.1918C205.252 86.3962 203.963 84.9407 202.374 84.9407C200.785 84.9407 199.497 86.3962 199.497 88.1918C199.497 89.9873 200.785 91.4429 202.374 91.4429Z" fill="#3B4C68"/>
<path opacity="0.1" d="M227.311 91.4429C228.9 91.4429 230.189 89.9873 230.189 88.1918C230.189 86.3962 228.9 84.9407 227.311 84.9407C225.722 84.9407 224.434 86.3962 224.434 88.1918C224.434 89.9873 225.722 91.4429 227.311 91.4429Z" fill="#3B4C68"/>
<path opacity="0.1" d="M252.248 91.4429C253.838 91.4429 255.126 89.9873 255.126 88.1918C255.126 86.3962 253.838 84.9407 252.248 84.9407C250.659 84.9407 249.371 86.3962 249.371 88.1918C249.371 89.9873 250.659 91.4429 252.248 91.4429Z" fill="#3B4C68"/>
<path opacity="0.1" d="M277.186 91.4429C278.775 91.4429 280.063 89.9873 280.063 88.1918C280.063 86.3962 278.775 84.9407 277.186 84.9407C275.596 84.9407 274.308 86.3962 274.308 88.1918C274.308 89.9873 275.596 91.4429 277.186 91.4429Z" fill="#3B4C68"/>
<path opacity="0.1" d="M302.123 91.4429C303.712 91.4429 305 89.9873 305 88.1918C305 86.3962 303.712 84.9407 302.123 84.9407C300.534 84.9407 299.245 86.3962 299.245 88.1918C299.245 89.9873 300.534 91.4429 302.123 91.4429Z" fill="#3B4C68"/>
<path opacity="0.1" d="M2.87738 119.621C4.46651 119.621 5.75476 118.165 5.75476 116.37C5.75476 114.574 4.46651 113.118 2.87738 113.118C1.28825 113.118 0 114.574 0 116.37C0 118.165 1.28825 119.621 2.87738 119.621Z" fill="#3B4C68"/>
<path opacity="0.1" d="M27.8145 119.621C29.4036 119.621 30.6919 118.165 30.6919 116.37C30.6919 114.574 29.4036 113.118 27.8145 113.118C26.2254 113.118 24.9371 114.574 24.9371 116.37C24.9371 118.165 26.2254 119.621 27.8145 119.621Z" fill="#3B4C68"/>
<path opacity="0.1" d="M52.7516 119.621C54.3407 119.621 55.6289 118.165 55.6289 116.37C55.6289 114.574 54.3407 113.118 52.7516 113.118C51.1625 113.118 49.8743 114.574 49.8743 116.37C49.8743 118.165 51.1625 119.621 52.7516 119.621Z" fill="#3B4C68"/>
<path opacity="0.1" d="M77.6887 119.621C79.2778 119.621 80.566 118.165 80.566 116.37C80.566 114.574 79.2778 113.118 77.6887 113.118C76.0995 113.118 74.8113 114.574 74.8113 116.37C74.8113 118.165 76.0995 119.621 77.6887 119.621Z" fill="#3B4C68"/>
<path opacity="0.1" d="M102.626 119.621C104.215 119.621 105.503 118.165 105.503 116.37C105.503 114.574 104.215 113.118 102.626 113.118C101.037 113.118 99.7484 114.574 99.7484 116.37C99.7484 118.165 101.037 119.621 102.626 119.621Z" fill="#3B4C68"/>
<path opacity="0.1" d="M127.563 119.621C129.152 119.621 130.44 118.165 130.44 116.37C130.44 114.574 129.152 113.118 127.563 113.118C125.974 113.118 124.686 114.574 124.686 116.37C124.686 118.165 125.974 119.621 127.563 119.621Z" fill="#3B4C68"/>
<path opacity="0.1" d="M152.5 119.621C154.089 119.621 155.377 118.165 155.377 116.37C155.377 114.574 154.089 113.118 152.5 113.118C150.911 113.118 149.623 114.574 149.623 116.37C149.623 118.165 150.911 119.621 152.5 119.621Z" fill="#3B4C68"/>
<path opacity="0.1" d="M177.437 119.621C179.026 119.621 180.314 118.165 180.314 116.37C180.314 114.574 179.026 113.118 177.437 113.118C175.848 113.118 174.56 114.574 174.56 116.37C174.56 118.165 175.848 119.621 177.437 119.621Z" fill="#3B4C68"/>
<path opacity="0.1" d="M202.374 119.621C203.963 119.621 205.252 118.165 205.252 116.37C205.252 114.574 203.963 113.118 202.374 113.118C200.785 113.118 199.497 114.574 199.497 116.37C199.497 118.165 200.785 119.621 202.374 119.621Z" fill="#3B4C68"/>
<path opacity="0.1" d="M227.311 119.621C228.9 119.621 230.189 118.165 230.189 116.37C230.189 114.574 228.9 113.118 227.311 113.118C225.722 113.118 224.434 114.574 224.434 116.37C224.434 118.165 225.722 119.621 227.311 119.621Z" fill="#3B4C68"/>
<path opacity="0.1" d="M252.248 119.621C253.838 119.621 255.126 118.165 255.126 116.37C255.126 114.574 253.838 113.118 252.248 113.118C250.659 113.118 249.371 114.574 249.371 116.37C249.371 118.165 250.659 119.621 252.248 119.621Z" fill="#3B4C68"/>
<path opacity="0.1" d="M277.186 119.621C278.775 119.621 280.063 118.165 280.063 116.37C280.063 114.574 278.775 113.118 277.186 113.118C275.596 113.118 274.308 114.574 274.308 116.37C274.308 118.165 275.596 119.621 277.186 119.621Z" fill="#3B4C68"/>
<path opacity="0.1" d="M302.123 119.621C303.712 119.621 305 118.165 305 116.37C305 114.574 303.712 113.118 302.123 113.118C300.534 113.118 299.245 114.574 299.245 116.37C299.245 118.165 300.534 119.621 302.123 119.621Z" fill="#3B4C68"/>
<path opacity="0.1" d="M2.87738 147.799C4.46651 147.799 5.75476 146.344 5.75476 144.548C5.75476 142.752 4.46651 141.297 2.87738 141.297C1.28825 141.297 0 142.752 0 144.548C0 146.344 1.28825 147.799 2.87738 147.799Z" fill="#3B4C68"/>
<path opacity="0.1" d="M27.8145 147.799C29.4036 147.799 30.6919 146.344 30.6919 144.548C30.6919 142.752 29.4036 141.297 27.8145 141.297C26.2254 141.297 24.9371 142.752 24.9371 144.548C24.9371 146.344 26.2254 147.799 27.8145 147.799Z" fill="#3B4C68"/>
<path opacity="0.1" d="M52.7516 147.799C54.3407 147.799 55.6289 146.344 55.6289 144.548C55.6289 142.752 54.3407 141.297 52.7516 141.297C51.1625 141.297 49.8743 142.752 49.8743 144.548C49.8743 146.344 51.1625 147.799 52.7516 147.799Z" fill="#3B4C68"/>
<path opacity="0.1" d="M77.6887 147.799C79.2778 147.799 80.566 146.344 80.566 144.548C80.566 142.752 79.2778 141.297 77.6887 141.297C76.0995 141.297 74.8113 142.752 74.8113 144.548C74.8113 146.344 76.0995 147.799 77.6887 147.799Z" fill="#3B4C68"/>
<path opacity="0.1" d="M102.626 147.799C104.215 147.799 105.503 146.344 105.503 144.548C105.503 142.752 104.215 141.297 102.626 141.297C101.037 141.297 99.7484 142.752 99.7484 144.548C99.7484 146.344 101.037 147.799 102.626 147.799Z" fill="#3B4C68"/>
<path opacity="0.1" d="M127.563 147.799C129.152 147.799 130.44 146.344 130.44 144.548C130.44 142.752 129.152 141.297 127.563 141.297C125.974 141.297 124.686 142.752 124.686 144.548C124.686 146.344 125.974 147.799 127.563 147.799Z" fill="#3B4C68"/>
<path opacity="0.1" d="M152.5 147.799C154.089 147.799 155.377 146.344 155.377 144.548C155.377 142.752 154.089 141.297 152.5 141.297C150.911 141.297 149.623 142.752 149.623 144.548C149.623 146.344 150.911 147.799 152.5 147.799Z" fill="#3B4C68"/>
<path opacity="0.1" d="M177.437 147.799C179.026 147.799 180.314 146.344 180.314 144.548C180.314 142.752 179.026 141.297 177.437 141.297C175.848 141.297 174.56 142.752 174.56 144.548C174.56 146.344 175.848 147.799 177.437 147.799Z" fill="#3B4C68"/>
<path opacity="0.1" d="M202.374 147.799C203.963 147.799 205.252 146.344 205.252 144.548C205.252 142.752 203.963 141.297 202.374 141.297C200.785 141.297 199.497 142.752 199.497 144.548C199.497 146.344 200.785 147.799 202.374 147.799Z" fill="#3B4C68"/>
<path opacity="0.1" d="M227.311 147.799C228.9 147.799 230.189 146.344 230.189 144.548C230.189 142.752 228.9 141.297 227.311 141.297C225.722 141.297 224.434 142.752 224.434 144.548C224.434 146.344 225.722 147.799 227.311 147.799Z" fill="#3B4C68"/>
<path opacity="0.1" d="M252.248 147.799C253.838 147.799 255.126 146.344 255.126 144.548C255.126 142.752 253.838 141.297 252.248 141.297C250.659 141.297 249.371 142.752 249.371 144.548C249.371 146.344 250.659 147.799 252.248 147.799Z" fill="#3B4C68"/>
<path opacity="0.1" d="M277.186 147.799C278.775 147.799 280.063 146.344 280.063 144.548C280.063 142.752 278.775 141.297 277.186 141.297C275.596 141.297 274.308 142.752 274.308 144.548C274.308 146.344 275.596 147.799 277.186 147.799Z" fill="#3B4C68"/>
<path opacity="0.1" d="M302.123 147.799C303.712 147.799 305 146.344 305 144.548C305 142.752 303.712 141.297 302.123 141.297C300.534 141.297 299.245 142.752 299.245 144.548C299.245 146.344 300.534 147.799 302.123 147.799Z" fill="#3B4C68"/>
<path opacity="0.1" d="M2.87738 175.976C4.46651 175.976 5.75476 174.521 5.75476 172.725C5.75476 170.929 4.46651 169.474 2.87738 169.474C1.28825 169.474 0 170.929 0 172.725C0 174.521 1.28825 175.976 2.87738 175.976Z" fill="#3B4C68"/>
<path opacity="0.1" d="M27.8145 175.976C29.4036 175.976 30.6919 174.521 30.6919 172.725C30.6919 170.929 29.4036 169.474 27.8145 169.474C26.2254 169.474 24.9371 170.929 24.9371 172.725C24.9371 174.521 26.2254 175.976 27.8145 175.976Z" fill="#3B4C68"/>
<path opacity="0.1" d="M52.7516 175.976C54.3407 175.976 55.6289 174.521 55.6289 172.725C55.6289 170.929 54.3407 169.474 52.7516 169.474C51.1625 169.474 49.8743 170.929 49.8743 172.725C49.8743 174.521 51.1625 175.976 52.7516 175.976Z" fill="#3B4C68"/>
<path opacity="0.1" d="M77.6887 175.976C79.2778 175.976 80.566 174.521 80.566 172.725C80.566 170.929 79.2778 169.474 77.6887 169.474C76.0995 169.474 74.8113 170.929 74.8113 172.725C74.8113 174.521 76.0995 175.976 77.6887 175.976Z" fill="#3B4C68"/>
<path opacity="0.1" d="M102.626 175.976C104.215 175.976 105.503 174.521 105.503 172.725C105.503 170.929 104.215 169.474 102.626 169.474C101.037 169.474 99.7484 170.929 99.7484 172.725C99.7484 174.521 101.037 175.976 102.626 175.976Z" fill="#3B4C68"/>
<path opacity="0.1" d="M127.563 175.976C129.152 175.976 130.44 174.521 130.44 172.725C130.44 170.929 129.152 169.474 127.563 169.474C125.974 169.474 124.686 170.929 124.686 172.725C124.686 174.521 125.974 175.976 127.563 175.976Z" fill="#3B4C68"/>
<path opacity="0.1" d="M152.5 175.976C154.089 175.976 155.377 174.521 155.377 172.725C155.377 170.929 154.089 169.474 152.5 169.474C150.911 169.474 149.623 170.929 149.623 172.725C149.623 174.521 150.911 175.976 152.5 175.976Z" fill="#3B4C68"/>
<path opacity="0.1" d="M177.437 175.976C179.026 175.976 180.314 174.521 180.314 172.725C180.314 170.929 179.026 169.474 177.437 169.474C175.848 169.474 174.56 170.929 174.56 172.725C174.56 174.521 175.848 175.976 177.437 175.976Z" fill="#3B4C68"/>
<path opacity="0.1" d="M202.374 175.976C203.963 175.976 205.252 174.521 205.252 172.725C205.252 170.929 203.963 169.474 202.374 169.474C200.785 169.474 199.497 170.929 199.497 172.725C199.497 174.521 200.785 175.976 202.374 175.976Z" fill="#3B4C68"/>
<path opacity="0.1" d="M227.311 175.976C228.9 175.976 230.189 174.521 230.189 172.725C230.189 170.929 228.9 169.474 227.311 169.474C225.722 169.474 224.434 170.929 224.434 172.725C224.434 174.521 225.722 175.976 227.311 175.976Z" fill="#3B4C68"/>
<path opacity="0.1" d="M252.248 175.976C253.838 175.976 255.126 174.521 255.126 172.725C255.126 170.929 253.838 169.474 252.248 169.474C250.659 169.474 249.371 170.929 249.371 172.725C249.371 174.521 250.659 175.976 252.248 175.976Z" fill="#3B4C68"/>
<path opacity="0.1" d="M277.186 175.976C278.775 175.976 280.063 174.521 280.063 172.725C280.063 170.929 278.775 169.474 277.186 169.474C275.596 169.474 274.308 170.929 274.308 172.725C274.308 174.521 275.596 175.976 277.186 175.976Z" fill="#3B4C68"/>
<path opacity="0.1" d="M302.123 175.976C303.712 175.976 305 174.521 305 172.725C305 170.929 303.712 169.474 302.123 169.474C300.534 169.474 299.245 170.929 299.245 172.725C299.245 174.521 300.534 175.976 302.123 175.976Z" fill="#3B4C68"/>
<path opacity="0.1" d="M2.87738 204.154C4.46651 204.154 5.75476 202.699 5.75476 200.903C5.75476 199.107 4.46651 197.651 2.87738 197.651C1.28825 197.651 0 199.107 0 200.903C0 202.699 1.28825 204.154 2.87738 204.154Z" fill="#3B4C68"/>
<path opacity="0.1" d="M27.8145 204.154C29.4036 204.154 30.6919 202.699 30.6919 200.903C30.6919 199.107 29.4036 197.651 27.8145 197.651C26.2254 197.651 24.9371 199.107 24.9371 200.903C24.9371 202.699 26.2254 204.154 27.8145 204.154Z" fill="#3B4C68"/>
<path opacity="0.1" d="M52.7516 204.154C54.3407 204.154 55.6289 202.699 55.6289 200.903C55.6289 199.107 54.3407 197.651 52.7516 197.651C51.1625 197.651 49.8743 199.107 49.8743 200.903C49.8743 202.699 51.1625 204.154 52.7516 204.154Z" fill="#3B4C68"/>
<path opacity="0.1" d="M77.6887 204.154C79.2778 204.154 80.566 202.699 80.566 200.903C80.566 199.107 79.2778 197.651 77.6887 197.651C76.0995 197.651 74.8113 199.107 74.8113 200.903C74.8113 202.699 76.0995 204.154 77.6887 204.154Z" fill="#3B4C68"/>
<path opacity="0.1" d="M102.626 204.154C104.215 204.154 105.503 202.699 105.503 200.903C105.503 199.107 104.215 197.651 102.626 197.651C101.037 197.651 99.7484 199.107 99.7484 200.903C99.7484 202.699 101.037 204.154 102.626 204.154Z" fill="#3B4C68"/>
<path opacity="0.1" d="M127.563 204.154C129.152 204.154 130.44 202.699 130.44 200.903C130.44 199.107 129.152 197.651 127.563 197.651C125.974 197.651 124.686 199.107 124.686 200.903C124.686 202.699 125.974 204.154 127.563 204.154Z" fill="#3B4C68"/>
<path opacity="0.1" d="M152.5 204.154C154.089 204.154 155.377 202.699 155.377 200.903C155.377 199.107 154.089 197.651 152.5 197.651C150.911 197.651 149.623 199.107 149.623 200.903C149.623 202.699 150.911 204.154 152.5 204.154Z" fill="#3B4C68"/>
<path opacity="0.1" d="M177.437 204.154C179.026 204.154 180.314 202.699 180.314 200.903C180.314 199.107 179.026 197.651 177.437 197.651C175.848 197.651 174.56 199.107 174.56 200.903C174.56 202.699 175.848 204.154 177.437 204.154Z" fill="#3B4C68"/>
<path opacity="0.1" d="M202.374 204.154C203.963 204.154 205.252 202.699 205.252 200.903C205.252 199.107 203.963 197.651 202.374 197.651C200.785 197.651 199.497 199.107 199.497 200.903C199.497 202.699 200.785 204.154 202.374 204.154Z" fill="#3B4C68"/>
<path opacity="0.1" d="M227.311 204.154C228.9 204.154 230.189 202.699 230.189 200.903C230.189 199.107 228.9 197.651 227.311 197.651C225.722 197.651 224.434 199.107 224.434 200.903C224.434 202.699 225.722 204.154 227.311 204.154Z" fill="#3B4C68"/>
<path opacity="0.1" d="M252.248 204.154C253.838 204.154 255.126 202.699 255.126 200.903C255.126 199.107 253.838 197.651 252.248 197.651C250.659 197.651 249.371 199.107 249.371 200.903C249.371 202.699 250.659 204.154 252.248 204.154Z" fill="#3B4C68"/>
<path opacity="0.1" d="M277.186 204.154C278.775 204.154 280.063 202.699 280.063 200.903C280.063 199.107 278.775 197.651 277.186 197.651C275.596 197.651 274.308 199.107 274.308 200.903C274.308 202.699 275.596 204.154 277.186 204.154Z" fill="#3B4C68"/>
<path opacity="0.1" d="M302.123 204.154C303.712 204.154 305 202.699 305 200.903C305 199.107 303.712 197.651 302.123 197.651C300.534 197.651 299.245 199.107 299.245 200.903C299.245 202.699 300.534 204.154 302.123 204.154Z" fill="#3B4C68"/>
</svg>
